<?xml version="1.0" encoding="UTF-8" standalone="no"?>
<!-- Generator: Adobe Illustrator 19.1.1, SVG Export Plug-In . SVG Version: 6.00 Build 0)  -->

<svg
   xmlns:dc="http://purl.org/dc/elements/1.1/"
   xmlns:cc="http://creativecommons.org/ns#"
   xmlns:rdf="http://www.w3.org/1999/02/22-rdf-syntax-ns#"
   xmlns:svg="http://www.w3.org/2000/svg"
   xmlns="http://www.w3.org/2000/svg"
   xmlns:sodipodi="http://sodipodi.sourceforge.net/DTD/sodipodi-0.dtd"
   xmlns:inkscape="http://www.inkscape.org/namespaces/inkscape"
   version="1.1"
   id="レイヤー_1"
   x="0px"
   y="0px"
   viewBox="0 0 300 60"
   xml:space="preserve"
   sodipodi:docname="sharecrest_logo.svg"
   width="300"
   height="60"
   inkscape:version="0.92.1 r15371"><metadata
     id="metadata3745"><rdf:RDF><cc:Work
         rdf:about=""><dc:format>image/svg+xml</dc:format><dc:type
           rdf:resource="http://purl.org/dc/dcmitype/StillImage" /><dc:title></dc:title></cc:Work></rdf:RDF></metadata><defs
     id="defs3743" /><sodipodi:namedview
     pagecolor="#ffffff"
     bordercolor="#666666"
     borderopacity="1"
     objecttolerance="10"
     gridtolerance="10"
     guidetolerance="10"
     inkscape:pageopacity="0"
     inkscape:pageshadow="2"
     inkscape:window-width="1292"
     inkscape:window-height="824"
     id="namedview3741"
     showgrid="false"
     inkscape:zoom="1.3018646"
     inkscape:cx="309.95537"
     inkscape:cy="205.47451"
     inkscape:window-x="351"
     inkscape:window-y="141"
     inkscape:window-maximized="0"
     inkscape:current-layer="レイヤー_1"
     units="px"
     width="300px" /><style
     type="text/css"
     id="style3680">
	.st0{fill:#66C6F1;}
	.st1{fill:#0068B6;}
</style><g
     id="g3738"
     transform="translate(-271.14954,-266.45479)"><g
       id="g3712"><path
         class="st0"
         d="m 316.8,267.1 c -0.2,1.3 -0.4,2.6 -0.7,3.9 l 5.1,0.1 c 0.3,-1.3 0.5,-2.6 0.7,-4 z"
         id="path3682"
         inkscape:connector-curvature="0"
         style="fill:#66c6f1" /><g
         id="g3710"><path
           class="st1"
           d="m 278,267.1 h -1.7 c -0.2,1.1 -0.6,2.1 -0.9,3.3 h 1.7 c 0.3,-1.1 0.6,-2.2 0.9,-3.3 z"
           id="path3684"
           inkscape:connector-curvature="0"
           style="fill:#0068b6" /><path
           class="st1"
           d="m 282.6,267.1 h -2.2 c -0.2,1.1 -0.5,2.2 -0.9,3.3 h 2.2 c 0.4,-1.1 0.7,-2.2 0.9,-3.3 z"
           id="path3686"
           inkscape:connector-curvature="0"
           style="fill:#0068b6" /><path
           class="st1"
           d="m 288.2,267.1 h -2.7 c -0.2,1.1 -0.5,2.2 -0.8,3.4 h 2.7 c 0.3,-1.1 0.6,-2.2 0.8,-3.4 z"
           id="path3688"
           inkscape:connector-curvature="0"
           style="fill:#0068b6" /><path
           class="st1"
           d="m 288.8,292.6 c -0.5,-0.8 -1.2,-1.7 -1.8,-2.6 -0.7,-1.1 -1.3,-2.2 -1.7,-3.1 -1.7,-4.3 -0.2,-8.4 1.1,-13 0.1,-0.4 0.2,-0.8 0.3,-1.2 l -2.7,-0.1 c -0.1,0.3 -0.2,0.6 -0.2,0.9 -1.4,4.8 -3,9.4 -1,14.1 0.4,0.9 1,2 1.7,3 0.7,1 1.3,2 1.9,2.9 2.5,3.9 4.9,8.4 3.9,12 0,0.1 -0.1,0.2 -0.1,0.3 -1,3 -5.7,6.4 -9.1,8.2 l 2.4,0.8 c 3.8,-2.2 8.3,-5.5 9.3,-8.9 1.4,-4.1 -1.2,-9.1 -4,-13.3 z"
           id="path3690"
           inkscape:connector-curvature="0"
           style="fill:#0068b6" /><path
           class="st1"
           d="m 287.2,304.2 c 1.3,-3.9 -1.1,-8.6 -3.9,-12.7 -0.6,-0.8 -1.2,-1.7 -1.8,-2.5 -0.7,-1 -1.3,-2 -1.6,-3 -1.5,-4 -0.3,-8.2 0.9,-12.5 0.1,-0.4 0.2,-0.7 0.3,-1.1 l -2.2,-0.1 c -0.1,0.2 -0.1,0.5 -0.2,0.7 -1.3,4.5 -2.7,9.1 -0.8,13.5 0.4,0.9 0.9,1.9 1.6,2.9 0.7,0.9 1.3,1.8 1.9,2.7 2.5,3.8 4.7,8 3.7,11.5 0,0.1 -0.1,0.2 -0.1,0.3 -1,2.9 -6,6.3 -9.2,8 l 2,0.7 c 3.7,-1.9 8.4,-5.1 9.4,-8.4 z"
           id="path3692"
           inkscape:connector-curvature="0"
           style="fill:#0068b6" /><path
           class="st1"
           d="m 282.4,302.5 c 1.6,-4.6 -2,-10.2 -5.4,-14.5 -3.6,-4.7 -2.2,-10.5 -0.6,-15.7 l -1.7,-0.1 c -1.6,5.3 -3.1,11.2 0.8,16.2 3.2,4.2 6.8,9.6 5.2,13.8 -1.1,3.1 -6.8,6.5 -9.8,8 l 1.6,0.5 c 3.5,-1.7 8.7,-4.9 9.9,-8.2 z"
           id="path3694"
           inkscape:connector-curvature="0"
           style="fill:#0068b6" /><path
           class="st0"
           d="m 305,267.1 h -3.4 c -0.2,1.3 -0.5,2.5 -0.8,3.7 l 3.4,0.1 c 0.3,-1.2 0.5,-2.5 0.8,-3.8 z"
           id="path3696"
           inkscape:connector-curvature="0"
           style="fill:#66c6f1" /><path
           class="st0"
           d="m 312.8,267.1 h -4.3 c -0.2,1.3 -0.5,2.6 -0.8,3.8 l 4.3,0.1 c 0.4,-1.3 0.6,-2.6 0.8,-3.9 z"
           id="path3698"
           inkscape:connector-curvature="0"
           style="fill:#66c6f1" /><path
           class="st0"
           d="m 298.3,267.1 h -2.6 c -0.2,1.2 -0.5,2.4 -0.9,3.6 h 2.6 c 0.4,-1.1 0.6,-2.3 0.9,-3.6 z"
           id="path3700"
           inkscape:connector-curvature="0"
           style="fill:#66c6f1" /><path
           class="st0"
           d="m 306.7,286.1 c 1.6,-3.8 3.4,-7.9 4.7,-12.3 l -4.3,-0.2 c -1.3,4.2 -2.9,8.2 -4.5,11.8 -2.5,5.8 -4.8,11.3 -4.8,16.4 0,9.6 2.2,14.6 6.8,21.4 l 6.1,2.1 c -6.1,-8.5 -8.6,-12.9 -8.6,-23.4 0,-4.9 2.1,-10 4.6,-15.8 z"
           id="path3702"
           inkscape:connector-curvature="0"
           style="fill:#66c6f1" /><path
           class="st0"
           d="m 315.8,286.9 c 1.7,-3.9 3.5,-8.2 4.7,-12.8 l -5.1,-0.2 c -1.2,4.4 -3,8.5 -4.6,12.2 -2.5,5.8 -4.8,11.4 -4.8,16.5 0,10.6 2.4,15.6 7.4,23.1 l 7.3,2.5 c -6.8,-9.6 -9.6,-13.9 -9.6,-25.6 0.1,-4.7 2.2,-9.8 4.7,-15.7 z"
           id="path3704"
           inkscape:connector-curvature="0"
           style="fill:#66c6f1" /><path
           class="st0"
           d="m 292.3,284.4 c 1.5,-3.5 3.2,-7.2 4.4,-11.3 l -2.6,-0.1 c -1.3,3.9 -2.9,7.6 -4.3,11 -2.5,5.7 -4.8,11.1 -4.8,16.2 0,7.4 1.6,12 5.5,18 l 3.6,1.2 c -4.7,-6.8 -6.6,-11.4 -6.6,-19.2 0,-4.9 2.3,-9.9 4.8,-15.8 z"
           id="path3706"
           inkscape:connector-curvature="0"
           style="fill:#66c6f1" /><path
           class="st0"
           d="m 298.9,285.3 c 1.6,-3.6 3.3,-7.6 4.6,-11.8 l -3.4,-0.1 c -1.3,4.1 -2.9,7.9 -4.4,11.4 -2.5,5.7 -4.8,11.2 -4.8,16.3 0,8.4 1.9,13.3 6.2,19.7 l 4.8,1.6 c -5.4,-7.5 -7.6,-12.2 -7.6,-21.3 -0.1,-4.9 2.1,-10 4.6,-15.8 z"
           id="path3708"
           inkscape:connector-curvature="0"
           style="fill:#66c6f1" /></g></g><g
       id="g3736"><path
         class="st0"
         d="m 349.2,295 c -3.3,-1.7 -6.7,-2.5 -10.2,-2.5 -2.3,0 -4.1,0.3 -5.3,0.8 -1.2,0.5 -1.8,1.3 -1.8,2.2 0,1 0.7,1.7 2,2.2 0.9,0.3 2.4,0.6 4.6,0.7 3.1,0.2 5.1,0.4 6.1,0.5 2.8,0.4 4.9,1.1 6.2,2.1 1.3,1 2,2.4 2,4.3 0,2.4 -1.1,4.2 -3.2,5.5 -2.1,1.3 -5.1,2 -9.1,2 -5.7,0 -10.2,-1.3 -13.4,-3.8 l 2,-2.7 c 3.5,2.1 7.3,3.2 11.3,3.2 2.6,0 4.7,-0.4 6.1,-1.1 1.4,-0.7 2.1,-1.7 2.1,-2.9 0,-1.4 -0.9,-2.4 -2.7,-2.9 -0.9,-0.2 -3.5,-0.5 -7.7,-0.8 -3.7,-0.2 -6.3,-0.7 -7.8,-1.5 -1.7,-0.9 -2.6,-2.3 -2.6,-4.4 0,-2.1 1,-3.8 3,-5 2,-1.2 4.8,-1.8 8.4,-1.8 4.8,0 8.9,1.1 12.2,3.3 z"
         id="path3714"
         inkscape:connector-curvature="0"
         style="fill:#66c6f1" /><path
         class="st1"
         d="m 478.9,294.4 -3.4,1.2 c -2.3,-2.4 -5.5,-3.6 -9.6,-3.6 -3.1,0 -5.7,0.8 -7.6,2.4 -2,1.6 -2.9,3.6 -2.9,6.1 0,2.5 1,4.6 2.9,6.1 1.9,1.6 4.6,2.3 7.9,2.3 4,0 7.1,-1.2 9.4,-3.7 l 3.2,1.8 c -1.6,1.9 -3.4,3.2 -5.5,4.1 -2,0.8 -4.5,1.3 -7.3,1.3 -4,0 -7.3,-1 -9.9,-3 -3,-2.3 -4.5,-5.2 -4.5,-8.9 0,-3.6 1.5,-6.6 4.6,-8.9 2.7,-2 5.9,-3 9.8,-3 5.5,0 9.9,1.9 12.9,5.8 z"
         id="path3716"
         inkscape:connector-curvature="0"
         style="fill:#0068b6" /><path
         class="st1"
         d="m 543.5,297.8 c -2.5,-1.3 -5.2,-1.9 -8.1,-1.9 -4.2,0 -6.3,0.8 -6.3,2.3 0,0.9 0.8,1.5 2.4,1.7 2.2,0.2 4.3,0.4 6.5,0.6 3.1,0.3 5.3,0.9 6.7,1.7 1.5,0.9 2.2,2.2 2.2,4.1 0,2.1 -0.9,3.6 -2.7,4.7 -1.8,1.1 -4.5,1.7 -8,1.7 -4.9,0 -8.8,-1.1 -11.8,-3.4 l 2,-2.7 c 2.6,1.8 5.9,2.8 9.7,2.8 2.2,0 3.8,-0.3 5,-0.8 1.2,-0.5 1.8,-1.3 1.8,-2.2 0,-1 -0.7,-1.7 -2.2,-2.1 -0.8,-0.2 -2.1,-0.4 -3.8,-0.5 -2.6,-0.1 -4.3,-0.2 -4.9,-0.3 -2.4,-0.2 -4.1,-0.7 -5.2,-1.5 -1.1,-0.8 -1.7,-1.9 -1.7,-3.5 0,-1.8 0.9,-3.3 2.7,-4.3 1.8,-1.1 4.3,-1.6 7.5,-1.6 4.3,0 7.8,0.9 10.5,2.8 z"
         id="path3718"
         inkscape:connector-curvature="0"
         style="fill:#0068b6" /><polygon
         class="st1"
         points="558.2,312.2 562.1,312.2 562.1,296.4 570.9,296.4 570.9,293.1 562.1,293.1 562.1,289.7 558.2,289.7 558.2,293.1 549,293.1 549,296.4 558.1,296.4 558.1,312.2 "
         id="polygon3720"
         style="fill:#0068b6" /><polygon
         class="st0"
         points="413.5,298.8 413.5,293.7 409.6,293.7 409.6,312.9 413.5,312.9 413.5,303.1 420.4,298.2 420.4,293.9 "
         id="polygon3722"
         style="fill:#66c6f1" /><path
         class="st0"
         d="m 443.5,295.1 c -2.4,-1.7 -5.2,-2.6 -8.5,-2.6 -3.3,0 -6.2,0.9 -8.5,2.6 -2.7,1.9 -4,4.5 -4,7.6 0,3.1 1.3,5.7 4,7.6 2.3,1.7 5.2,2.5 8.6,2.5 3.4,0 6.3,-0.8 8.5,-2.5 0.7,-0.5 1.4,-1.1 1.9,-1.8 l -3.3,-1.7 c -0.2,0.3 -0.5,0.5 -0.8,0.8 -1.6,1.3 -3.7,1.9 -6.3,1.9 -2.6,0 -4.8,-0.6 -6.4,-1.9 -1.2,-1 -2,-2.2 -2.3,-3.6 h 21.1 c 0,-0.1 0,-0.2 0,-0.3 0,-0.3 0,-0.7 0,-1 0.1,-3.2 -1.3,-5.7 -4,-7.6 z m -14.8,2.6 c 1.6,-1.3 3.7,-1.9 6.3,-1.9 2.6,0 4.6,0.6 6.3,1.9 1,0.8 1.7,1.7 2.1,2.8 h -16.8 c 0.4,-1 1.1,-2 2.1,-2.8 z"
         id="path3724"
         inkscape:connector-curvature="0"
         style="fill:#66c6f1" /><polygon
         class="st1"
         points="486.6,298.8 486.6,293.7 482.7,293.7 482.7,312.9 486.6,312.9 486.6,303.1 493.5,298.2 493.5,293.9 "
         id="polygon3726"
         style="fill:#0068b6" /><path
         class="st1"
         d="m 517.2,295.1 c -2.4,-1.7 -5.2,-2.6 -8.5,-2.6 -3.3,0 -6.2,0.9 -8.5,2.6 -2.7,1.9 -4,4.5 -4,7.6 0,3.1 1.3,5.7 4,7.6 2.3,1.7 5.2,2.5 8.6,2.5 3.4,0 6.3,-0.8 8.5,-2.5 0.7,-0.5 1.4,-1.1 1.9,-1.8 l -3.3,-1.7 c -0.2,0.3 -0.5,0.5 -0.8,0.8 -1.6,1.3 -3.7,1.9 -6.3,1.9 -2.6,0 -4.8,-0.6 -6.4,-1.9 -1.2,-1 -2,-2.2 -2.3,-3.6 h 21.1 c 0,-0.1 0,-0.2 0,-0.3 0,-0.3 0,-0.7 0,-1 0.1,-3.2 -1.3,-5.7 -4,-7.6 z m -14.8,2.6 c 1.6,-1.3 3.7,-1.9 6.3,-1.9 2.6,0 4.6,0.6 6.3,1.9 1,0.8 1.7,1.7 2.1,2.8 h -16.8 c 0.4,-1 1.1,-2 2.1,-2.8 z"
         id="path3728"
         inkscape:connector-curvature="0"
         style="fill:#0068b6" /><path
         class="st0"
         d="m 375.8,298.1 c -2,-1.3 -4.7,-1.9 -8.1,-1.9 -3,0 -5.4,0.5 -7.3,1.5 v -7.9 h -3.9 v 22.5 h 3.9 v -9.1 c 0.3,-2.4 2.8,-3.6 7.3,-3.6 4.9,0 7.4,1.4 7.4,4.2 v 8.5 h 3.7 v -9.2 c 0,-2 -1,-3.7 -3,-5 z"
         id="path3730"
         inkscape:connector-curvature="0"
         style="fill:#66c6f1" /><g
         id="g3734"><path
           class="st0"
           d="m 399.5,310.6 c -0.4,0.2 -0.9,0.5 -1.5,0.8 -0.6,0.4 -1.2,0.6 -1.8,0.8 -0.8,0.3 -1.6,0.5 -2.3,0.7 -0.7,0.2 -1.8,0.2 -3.1,0.2 -1.1,0 -2.2,-0.2 -3.1,-0.4 -1,-0.3 -1.9,-0.7 -2.6,-1.3 -0.7,-0.5 -1.3,-1.2 -1.7,-2 -0.4,-0.8 -0.7,-1.6 -0.7,-2.5 0,-1.3 0.4,-2.5 1.2,-3.4 0.8,-0.9 2,-1.7 3.7,-2.2 1.5,-0.5 3.3,-0.8 5.3,-1 2,-0.2 4.3,-0.3 6.6,-0.4 v -0.6 c 0,-0.8 -0.2,-1.4 -0.5,-1.8 -0.3,-0.5 -0.8,-0.8 -1.3,-1.1 -0.6,-0.3 -1,-0.3 -1.8,-0.4 -0.8,-0.1 -2,0 -2.9,0 -1,0 -2.3,0.1 -3.7,0.3 -1.4,0.2 -2.8,0.3 -4.2,0.7 h -0.3 v -3.3 c 0.8,-0.2 2,-0.4 3.6,-0.6 1.6,-0.2 3.1,-0.3 4.6,-0.3 1.8,0 3.4,0.1 4.7,0.3 1.3,0.2 2.4,0.6 3.4,1.1 1,0.5 1.3,1.2 1.8,2 0.5,0.8 0.5,1.9 0.5,3.1 v 13.1 h -3.9 z m 0,-2.9 V 303 c -1.1,0.1 -2.4,-0.1 -4.1,0 -1.6,0.1 -3,0.3 -4,0.5 -1.2,0.3 -2.5,0.6 -3.3,1.2 -0.8,0.5 -1.5,1.3 -1.5,2.3 0,1.1 0.8,2 1.6,2.6 0.9,0.6 2.4,0.7 4,0.7 1.4,0 2.9,-0.4 4,-0.8 1.6,-0.7 2.3,-1.2 3.3,-1.8 z"
           id="path3732"
           inkscape:connector-curvature="0"
           style="fill:#66c6f1" /></g></g></g></svg>